<svg width="1301" height="1318" viewBox="0 0 1301 1318" fill="none" xmlns="http://www.w3.org/2000/svg">
<g filter="url(#filter0_d_331_306)">
<path d="M527.366 354.797L490.842 159L586.632 262.725L654.847 161.312L723.015 262.723L810.842 166.876L776.119 354.797C679.319 342.01 625.309 342.097 527.366 354.797Z" fill="black" fill-opacity="0.28" shape-rendering="crispEdges"/>
<path d="M527.771 354.241L491.652 160.614L586.264 263.064L586.693 263.529L587.046 263.004L654.847 162.208L722.6 263.002L722.955 263.53L723.384 263.061L810.034 168.498L775.713 354.239C679.319 341.529 625.3 341.616 527.771 354.241Z" stroke="#5E3A00" shape-rendering="crispEdges"/>
</g>
<g filter="url(#filter1_d_331_306)">
<path d="M555.184 407.603L549 368.601C628.046 359.704 672.619 359.356 752.684 368.601L745.895 407.603C670.709 400.243 628.987 400.477 555.184 407.603Z" fill="black" fill-opacity="0.28" shape-rendering="crispEdges"/>
<path d="M555.604 407.06L549.576 369.04C628.089 360.223 672.581 359.879 752.1 369.037L745.482 407.06C670.712 399.759 628.996 399.99 555.604 407.06Z" stroke="#5E3A00" shape-rendering="crispEdges"/>
</g>
<g filter="url(#filter2_d_331_306)">
<path d="M537.101 453.638L531.7 424.631C623.977 411.603 676.109 410.923 769.984 424.63L764.628 453.638C672.901 441.461 623.245 442.156 537.101 453.638Z" fill="black" fill-opacity="0.28" shape-rendering="crispEdges"/>
<path d="M537.506 453.079L532.287 425.054C624.03 412.125 676.072 411.453 769.398 425.05L764.223 453.08C672.919 440.984 623.255 441.672 537.506 453.079Z" stroke="#5E3A00" shape-rendering="crispEdges"/>
</g>
<g clip-path="url(#clip0_331_306)">
<g filter="url(#filter3_d_331_306)">
<path d="M350.578 1006.31C362.791 1013.38 378.541 1016.92 397.825 1016.92H400.718V1053.56H178.945V1035.27C178.945 1035.27 221.705 995.51 245.477 966.779C376.159 808.836 369.454 458.63 369.454 456.701C364.136 411.074 346.721 399.922 303.886 391.811V375.706H434.057L598.215 795.219C572.494 804.293 561.989 811.216 548.33 825.897L424.737 513.754L333.222 966.779C332.579 986.064 338.364 999.242 350.578 1006.31Z" fill="#626262"/>
<path d="M579.001 903.357L638.474 1053.56L852.687 513.754L944.201 966.779C944.844 986.064 939.059 999.242 926.845 1006.31C914.632 1013.38 898.882 1016.92 879.598 1016.92H876.705V1053.56H1098.48V1035.27C1098.48 1035.27 1055.72 995.51 1031.95 966.779C901.264 808.836 907.969 458.63 907.969 456.701C913.288 411.074 930.702 399.922 973.537 391.811V375.706H843.366L640.458 903.357L614.17 836.634C597.988 852.904 590.209 867.198 579.001 903.357Z" fill="#626262"/>
<path d="M333.986 966.869L424.976 516.442L547.617 826.179L548.064 827.309L548.892 826.419C555.692 819.11 561.682 813.759 569.155 809.107C576.635 804.449 585.632 800.471 598.47 795.943L599.218 795.679L598.929 794.94L434.771 375.426L434.581 374.939H434.057H303.886H303.119V375.706V391.811V392.447L303.743 392.565C325.152 396.619 340.02 401.406 350.22 410.753C360.388 420.07 366.035 434.033 368.687 456.749C368.688 456.797 368.689 456.875 368.69 456.984C368.768 462.59 369.954 548.651 355.711 653.131C341.054 760.651 310.079 887.497 244.886 966.29C233.025 980.625 216.415 997.726 202.757 1011.25C195.93 1018.02 189.846 1023.88 185.468 1028.05C183.28 1030.14 181.518 1031.8 180.303 1032.95C179.696 1033.52 179.225 1033.96 178.907 1034.26C178.748 1034.41 178.627 1034.52 178.545 1034.59L178.453 1034.68L178.43 1034.7L178.424 1034.71L178.423 1034.71C178.423 1034.71 178.423 1034.71 178.945 1035.27L178.423 1034.71L178.178 1034.94V1035.27V1053.56V1054.33H178.945H400.718H401.485V1053.56V1016.92V1016.15H400.718H397.825C378.628 1016.15 363.024 1012.63 350.962 1005.65C339.095 998.778 333.364 985.954 333.986 966.869ZM578.268 903.13L578.188 903.388L578.288 903.64L637.761 1053.84L638.473 1055.64L639.187 1053.84L852.446 516.438L943.437 966.869C944.059 985.954 938.328 998.779 926.461 1005.65C914.399 1012.63 898.795 1016.15 879.598 1016.15H876.705H875.938V1016.92V1053.56V1054.33H876.705H1098.48H1099.25V1053.56V1035.27V1034.94L1099 1034.71L1098.48 1035.27C1099 1034.71 1099 1034.71 1099 1034.71L1099 1034.71L1098.99 1034.7L1098.97 1034.68L1098.88 1034.59C1098.8 1034.52 1098.68 1034.41 1098.52 1034.26C1098.2 1033.96 1097.73 1033.52 1097.12 1032.95C1095.91 1031.8 1094.14 1030.14 1091.95 1028.05C1087.58 1023.88 1081.49 1018.02 1074.67 1011.25C1061.01 997.726 1044.4 980.625 1032.54 966.29C967.344 887.497 936.369 760.651 921.712 653.131C907.469 548.651 908.655 462.59 908.733 456.984C908.734 456.875 908.735 456.797 908.736 456.749C911.388 434.033 917.036 420.07 927.203 410.753C937.403 401.406 952.271 396.619 973.68 392.565L974.304 392.447V391.811V375.706V374.939H973.537H843.366H842.839L842.65 375.43L640.449 901.243L614.883 836.353L614.453 835.261L613.626 836.093C597.321 852.487 589.494 866.913 578.268 903.13Z" stroke="#FFD289" stroke-width="1.53387"/>
</g>
<path d="M930.982 1013.19C918.769 1020.26 903.267 1023.19 883.982 1023.19V1048.19H1088.48V1035.69C962.026 924.224 922.168 798.499 899.982 513.691C891.647 396.041 926.943 393.455 968.982 386.691V381.691H847.482L640.482 919.191L611.982 850.191C602.689 859.757 593.777 876.21 585.982 903.691L637.982 1034.69L854.482 496.191L953.482 972.191C954.125 991.476 943.196 1006.12 930.982 1013.19Z" stroke="#FFD289" stroke-width="1.53"/>
<path d="M346.482 1012.19C358.696 1019.26 374.198 1022.19 393.482 1022.19V1047.19H188.982V1034.69C315.438 923.224 355.297 797.499 377.482 512.691C385.818 395.041 350.521 392.455 308.482 385.691V380.691H429.982L587.495 789.691C570.016 796.76 562.252 801.887 550.43 812.191L422.982 495.191L323.982 971.191C323.34 990.476 334.269 1005.12 346.482 1012.19Z" stroke="#FFD289" stroke-width="1.53"/>
</g>
<g filter="url(#filter4_d_331_306)">
<path d="M577.735 1185.56C605.508 1203.53 637.818 1212.51 674.667 1212.51C695.904 1212.51 715.236 1208.97 732.662 1201.89C750.269 1194.81 764.972 1185.19 776.771 1173.03L806.994 1207.07H808.083V1095.43H806.994C806.994 1110.68 803.908 1125.2 797.737 1139C791.746 1152.61 783.124 1164.77 771.87 1175.48C760.616 1186.19 747.184 1194.63 731.573 1200.8C716.144 1206.79 698.99 1209.79 680.112 1209.79C656.515 1209.79 636.457 1203.8 619.939 1191.82C603.602 1179.66 590.442 1163.59 580.458 1143.62C570.656 1123.48 563.486 1101.15 558.948 1076.64C554.41 1052.14 552.141 1027.54 552.141 1002.86C552.141 977.988 554.41 953.392 558.948 929.068C563.486 904.563 570.656 882.327 580.458 862.36C590.442 842.211 603.602 826.147 619.939 814.167C635.171 802.952 645.835 799.52 667.088 798.647C667.635 797.34 669.286 794.015 670.138 792.152C633.298 792.155 605.503 802.28 577.735 820.429C549.963 838.4 528.271 863.177 512.661 894.761C497.232 926.346 489.517 962.377 489.517 1002.86C489.517 1043.33 497.232 1079.37 512.661 1110.95C528.271 1142.54 549.963 1167.4 577.735 1185.56Z" fill="#BABABA"/>
<path d="M801.549 798.647L768.603 830.231C759.78 821.718 757.059 820.043 744.861 812.532L744.037 812.024L743.266 813.759C761.629 823.524 772.558 834.031 784.123 851.197C795.74 868.441 801.549 888.136 801.549 910.281H802.638V798.647H801.549Z" fill="#BABABA"/>
<path d="M669.769 791.089C669.732 791.177 669.689 791.276 669.641 791.385C632.879 791.479 605.066 801.65 577.317 819.786C549.422 837.837 527.641 862.722 511.973 894.421L511.972 894.425C496.484 926.129 488.75 962.278 488.75 1002.86C488.75 1043.43 496.484 1079.58 511.972 1111.29L511.973 1111.29C527.641 1142.99 549.421 1167.97 577.316 1186.2L577.319 1186.2C605.229 1204.26 637.688 1213.28 674.667 1213.28C695.99 1213.28 715.42 1209.72 732.948 1202.6C750.358 1195.6 764.961 1186.12 776.744 1174.16L806.421 1207.57L806.649 1207.83H806.994H808.083H808.85V1207.07V1095.43V1094.66H808.083H806.994H806.227V1095.43C806.227 1110.57 803.164 1124.99 797.037 1138.68L797.035 1138.69C791.087 1152.2 782.525 1164.28 771.341 1174.93C760.164 1185.56 746.818 1193.95 731.291 1200.09C715.963 1206.04 698.907 1209.02 680.112 1209.02C656.652 1209.02 636.759 1203.07 620.392 1191.2C604.164 1179.12 591.08 1163.15 581.146 1143.28C571.378 1123.21 564.229 1100.95 559.702 1076.5C555.173 1052.04 552.908 1027.5 552.908 1002.86C552.908 978.035 555.173 953.486 559.702 929.209L559.702 929.208C564.229 904.764 571.378 882.597 581.146 862.7C591.081 842.649 604.165 826.685 620.392 814.785L620.393 814.784C627.969 809.207 634.37 805.593 641.495 803.257C648.625 800.92 656.525 799.848 667.119 799.413L667.607 799.393L667.795 798.943C668.109 798.195 668.776 796.803 669.454 795.389C669.955 794.344 670.462 793.287 670.835 792.47L671.331 791.385L670.477 791.385L669.769 791.089ZM768.604 829.168C760.139 821.039 757.234 819.25 745.263 811.879L744.439 811.371L743.692 810.911L743.336 811.713L742.565 813.448L742.314 814.013L742.275 814.101L742.656 814.303L742.656 814.304L742.906 814.436C761.146 824.135 771.984 834.551 783.487 851.625C795.013 868.735 800.782 888.278 800.782 910.281V911.048H801.549H802.638H803.405V910.281V798.647V797.88H802.638H801.549H801.24L801.018 798.093L768.604 829.168Z" stroke="#5E3A00" stroke-width="1.53387"/>
</g>
<defs>
<filter id="filter0_d_331_306" x="486.542" y="156.7" width="332.6" height="208.397" filterUnits="userSpaceOnUse" color-interpolation-filters="sRGB">
<feFlood flood-opacity="0" result="BackgroundImageFix"/>
<feColorMatrix in="SourceAlpha" type="matrix" values="0 0 0 0 0 0 0 0 0 0 0 0 0 0 0 0 0 0 127 0" result="hardAlpha"/>
<feOffset dx="2" dy="4"/>
<feGaussianBlur stdDeviation="3.15"/>
<feComposite in2="hardAlpha" operator="out"/>
<feColorMatrix type="matrix" values="0 0 0 0 0 0 0 0 0 0 0 0 0 0 0 0 0 0 0.25 0"/>
<feBlend mode="normal" in2="BackgroundImageFix" result="effect1_dropShadow_331_306"/>
<feBlend mode="normal" in="SourceGraphic" in2="effect1_dropShadow_331_306" result="shape"/>
</filter>
<filter id="filter1_d_331_306" x="544.7" y="359.497" width="216.284" height="58.4058" filterUnits="userSpaceOnUse" color-interpolation-filters="sRGB">
<feFlood flood-opacity="0" result="BackgroundImageFix"/>
<feColorMatrix in="SourceAlpha" type="matrix" values="0 0 0 0 0 0 0 0 0 0 0 0 0 0 0 0 0 0 127 0" result="hardAlpha"/>
<feOffset dx="2" dy="4"/>
<feGaussianBlur stdDeviation="3.15"/>
<feComposite in2="hardAlpha" operator="out"/>
<feColorMatrix type="matrix" values="0 0 0 0 0 0 0 0 0 0 0 0 0 0 0 0 0 0 0.25 0"/>
<feBlend mode="normal" in2="BackgroundImageFix" result="effect1_dropShadow_331_306"/>
<feBlend mode="normal" in="SourceGraphic" in2="effect1_dropShadow_331_306" result="shape"/>
</filter>
<filter id="filter2_d_331_306" x="527.4" y="412.303" width="250.884" height="51.6347" filterUnits="userSpaceOnUse" color-interpolation-filters="sRGB">
<feFlood flood-opacity="0" result="BackgroundImageFix"/>
<feColorMatrix in="SourceAlpha" type="matrix" values="0 0 0 0 0 0 0 0 0 0 0 0 0 0 0 0 0 0 127 0" result="hardAlpha"/>
<feOffset dx="2" dy="4"/>
<feGaussianBlur stdDeviation="3.15"/>
<feComposite in2="hardAlpha" operator="out"/>
<feColorMatrix type="matrix" values="0 0 0 0 0 0 0 0 0 0 0 0 0 0 0 0 0 0 0.25 0"/>
<feBlend mode="normal" in2="BackgroundImageFix" result="effect1_dropShadow_331_306"/>
<feBlend mode="normal" in="SourceGraphic" in2="effect1_dropShadow_331_306" result="shape"/>
</filter>
<filter id="filter3_d_331_306" x="168.821" y="374.172" width="939.781" height="705.945" filterUnits="userSpaceOnUse" color-interpolation-filters="sRGB">
<feFlood flood-opacity="0" result="BackgroundImageFix"/>
<feColorMatrix in="SourceAlpha" type="matrix" values="0 0 0 0 0 0 0 0 0 0 0 0 0 0 0 0 0 0 127 0" result="hardAlpha"/>
<feOffset dy="13.8048"/>
<feGaussianBlur stdDeviation="4.29484"/>
<feComposite in2="hardAlpha" operator="out"/>
<feColorMatrix type="matrix" values="0 0 0 0 0 0 0 0 0 0 0 0 0 0 0 0 0 0 0.25 0"/>
<feBlend mode="normal" in2="BackgroundImageFix" result="effect1_dropShadow_331_306"/>
<feBlend mode="normal" in="SourceGraphic" in2="effect1_dropShadow_331_306" result="shape"/>
</filter>
<filter id="filter4_d_331_306" x="481.848" y="790.618" width="333.905" height="440.3" filterUnits="userSpaceOnUse" color-interpolation-filters="sRGB">
<feFlood flood-opacity="0" result="BackgroundImageFix"/>
<feColorMatrix in="SourceAlpha" type="matrix" values="0 0 0 0 0 0 0 0 0 0 0 0 0 0 0 0 0 0 127 0" result="hardAlpha"/>
<feOffset dy="10.7371"/>
<feGaussianBlur stdDeviation="3.06774"/>
<feComposite in2="hardAlpha" operator="out"/>
<feColorMatrix type="matrix" values="0 0 0 0 0 0 0 0 0 0 0 0 0 0 0 0 0 0 0.25 0"/>
<feBlend mode="normal" in2="BackgroundImageFix" result="effect1_dropShadow_331_306"/>
<feBlend mode="normal" in="SourceGraphic" in2="effect1_dropShadow_331_306" result="shape"/>
</filter>
<clipPath id="clip0_331_306">
<rect width="949.466" height="704.047" fill="white" transform="matrix(-1 0 0 1 1112.68 366.502)"/>
</clipPath>
</defs>
</svg>
