<svg width="32" height="32" viewBox="0 0 32 32" fill="none" xmlns="http://www.w3.org/2000/svg">
<g clip-path="url(#clip0_331_308)">
<g filter="url(#filter0_d_331_308)">
<path d="M9.76771 23.0318C9.29301 23.0318 8.90534 22.9447 8.6047 22.7707C8.30406 22.5966 8.16165 22.2723 8.17747 21.7976L10.4301 10.6462L14.2274 20.2364L15.6914 23.9337L20.9643 10.6462L23.217 21.7976C23.2328 22.2723 23.0904 22.5966 22.7897 22.7707C22.4891 22.9447 22.1014 23.0318 21.6267 23.0318H21.5555V23.9337H27.0146V23.4835C27.0146 23.4835 25.962 22.5048 25.3768 21.7976C22.16 17.9097 22.3251 9.28925 22.3251 9.24178C22.456 8.11866 22.8847 7.84415 23.9391 7.64449V7.24805H20.7349L15.7402 20.2364L15.0931 18.594L10.6596 7.24805H7.45536V7.64449C8.50975 7.84415 8.93843 8.11866 9.06933 9.24178C9.06933 9.28925 9.23439 17.9097 6.01759 21.7976C5.43245 22.5048 4.37988 23.4835 4.37988 23.4835V23.9337H9.83891V23.0318H9.76771Z" fill="#FF9D00"/>
<path d="M8.19629 21.7997L10.436 10.7123L14.2099 20.2433L15.6738 23.9406L15.6914 23.9849L15.7089 23.9407L20.9584 10.7122L23.1982 21.7998C23.2135 22.2696 23.0724 22.5852 22.7803 22.7543C22.4834 22.9262 22.0993 23.0129 21.6267 23.0129H21.5555H21.5366V23.0318V23.9337V23.9526H21.5555H27.0146H27.0334V23.9337V23.4835V23.4753L27.0274 23.4697L27.0146 23.4835L27.0274 23.4696L27.0274 23.4696L27.0272 23.4695L27.0267 23.469L27.0244 23.4668L27.0155 23.4585L26.9811 23.4263C26.9512 23.3982 26.9079 23.3572 26.854 23.3058C26.7462 23.2031 26.5965 23.0587 26.4284 22.8923C26.0922 22.5593 25.6833 22.1384 25.3914 21.7855C23.7866 19.846 23.0242 16.7236 22.6634 14.077C22.3128 11.5052 22.342 9.38674 22.3439 9.24873C22.3439 9.24606 22.344 9.24413 22.344 9.24296C22.4093 8.68379 22.5483 8.34009 22.7985 8.11075C23.0496 7.88068 23.4156 7.76283 23.9426 7.66304L23.958 7.66013V7.64449V7.24805V7.22917H23.9391H20.7349H20.7219L20.7172 7.24127L15.74 20.1844L15.1107 18.5871L15.1107 18.5871L10.6772 7.24118L10.6725 7.22917H10.6596H7.45536H7.43648V7.24805V7.64449V7.66013L7.45185 7.66304C7.97882 7.76283 8.34482 7.88068 8.5959 8.11075C8.84617 8.34009 8.98517 8.6838 9.05047 9.24296C9.05048 9.24414 9.05051 9.24607 9.05054 9.24873C9.05244 9.38674 9.08164 11.5052 8.73106 14.077C8.37028 16.7236 7.60781 19.846 6.00305 21.7855C5.7111 22.1384 5.30223 22.5593 4.96602 22.8923C4.79799 23.0587 4.64822 23.2031 4.54046 23.3058C4.48659 23.3572 4.44322 23.3982 4.41332 23.4263L4.37895 23.4585L4.37005 23.4668L4.36778 23.469L4.36722 23.4695L4.36707 23.4696L4.36704 23.4696L4.37988 23.4835L4.36703 23.4697L4.361 23.4753V23.4835V23.9337V23.9526H4.37988H9.83891H9.85779V23.9337V23.0318V23.0129H9.83891H9.76771C9.29517 23.0129 8.91106 22.9262 8.61416 22.7543C8.32203 22.5852 8.18096 22.2695 8.19629 21.7997Z" stroke="#FF9D00" stroke-width="0.0377568"/>
</g>
<path d="M21.7348 23.1863C22.2095 23.1863 22.591 23.1142 22.8917 22.9401C23.1923 22.7661 23.4614 22.4056 23.4455 21.9309L21.0086 10.214L15.6794 23.4694L14.3994 20.2447L13.5241 17.9926L10.387 10.1896L7.95003 21.9065C7.93421 22.3812 8.20323 22.7417 8.50388 22.9157C8.80452 23.0898 9.1861 23.1619 9.6608 23.1619V23.7773H4.62695V23.4696C7.73972 20.7258 8.72085 17.631 9.26695 10.6203C9.47214 7.72432 8.60329 7.66066 7.56849 7.49417V7.37109H10.5593L14.4365 17.4388L15.0394 18.9278L15.7409 20.6263L20.8363 7.39551H23.8271V7.51858C22.7923 7.68507 21.9234 7.74874 22.1286 10.6447C22.6747 17.6554 23.6559 20.7502 26.7686 23.494V23.8017H21.7348V23.1863Z" fill="#FF9D00" stroke="#FFD289" stroke-width="0.0376615"/>
</g>
<g clip-path="url(#clip1_331_308)">
<g filter="url(#filter1_d_331_308)">
<path d="M13.0101 22.5229C13.9009 23.0993 14.9373 23.3875 16.1192 23.3875C16.8004 23.3875 17.4205 23.274 17.9794 23.0469C18.5442 22.8199 19.0158 22.5113 19.3942 22.1212L20.3637 23.2129H20.3986V19.6321H20.3637C20.3637 20.1212 20.2647 20.587 20.0667 21.0295C19.8746 21.4662 19.598 21.8563 19.237 22.1998C18.8761 22.5433 18.4452 22.814 17.9445 23.012C17.4496 23.2041 16.8994 23.3002 16.2939 23.3002C15.537 23.3002 14.8936 23.1081 14.3638 22.7238C13.8397 22.3337 13.4176 21.8184 13.0974 21.178C12.783 20.5317 12.553 19.8155 12.4075 19.0295C12.2619 18.2435 12.1891 17.4546 12.1891 16.6627L10.9228 13.1956C10.4279 14.2086 10.1804 15.3644 10.1804 16.6627C10.1804 17.9611 10.4279 19.1169 10.9228 20.1299C11.4235 21.143 12.1193 21.9407 13.0101 22.5229Z" fill="#BABABA"/>
<path d="M15.9745 9.9043C14.7926 9.9043 13.9009 10.2291 13.0101 10.8113C12.8781 10.8967 12.7504 10.9869 12.627 11.0819L13.0974 12.1563C13.4176 11.51 13.738 10.9767 14.2621 10.5924C16.9846 9.66267 18.2327 10.0362 19.63 11.7982C20.0027 12.3513 20.189 12.983 20.189 13.6934H20.2239V10.1126H20.189L19.1322 11.1257C18.8492 10.8527 18.762 10.7989 18.3707 10.558L18.3443 10.5417C17.4582 10.0723 16.9282 9.97014 15.9745 9.9043Z" fill="#BABABA"/>
<path d="M10.9007 20.1407L10.9007 20.1408C11.4033 21.1576 12.1019 21.9587 12.9966 22.5435L12.9967 22.5436C13.8919 23.1228 14.9331 23.4121 16.1192 23.4121C16.8031 23.4121 17.4264 23.2981 17.9886 23.0697C18.547 22.8452 19.0154 22.5411 19.3934 22.1573L20.3453 23.2292L20.3526 23.2375H20.3637H20.3986H20.4232V23.2129V19.6321V19.6075H20.3986H20.3637H20.3391V19.6321C20.3391 20.1178 20.2408 20.5801 20.0443 21.0194L20.0442 21.0196C19.8534 21.4531 19.5788 21.8406 19.2201 22.182C18.8616 22.5231 18.4335 22.7922 17.9355 22.9891C17.4438 23.18 16.8967 23.2756 16.2939 23.2756C15.5414 23.2756 14.9033 23.0847 14.3783 22.704C13.8578 22.3164 13.4381 21.8043 13.1195 21.1671C12.8062 20.523 12.5768 19.8091 12.4316 19.025C12.2864 18.2405 12.2137 17.4531 12.2137 16.6627H12.2153L12.2122 16.6543L10.9459 13.1871L10.926 13.1328L10.9007 13.1848C10.4039 14.2017 10.1558 15.3612 10.1558 16.6627C10.1558 17.9643 10.4039 19.1238 10.9007 20.1407ZM13.1194 12.1672C13.4388 11.5228 13.7564 10.9949 14.2736 10.6145C15.6317 10.151 16.6179 10.0142 17.4373 10.2098C18.2563 10.4053 18.9132 10.9341 19.6102 11.8127C19.9795 12.3613 20.1644 12.9879 20.1644 13.6934V13.718H20.189H20.2239H20.2485V13.6934V10.1126V10.088H20.2239H20.189H20.1791L20.172 10.0949L19.1323 11.0916C18.8608 10.8309 18.7676 10.7735 18.3836 10.537L18.3572 10.5208L18.3572 10.5207L18.3558 10.52C17.4658 10.0485 16.9323 9.94576 15.9762 9.87976L15.9762 9.8797H15.9745C14.7871 9.8797 13.8908 10.2063 12.9966 10.7907L13.0101 10.8113L12.9967 10.7907C12.8642 10.8764 12.7359 10.967 12.612 11.0624L12.5968 11.0741L12.6045 11.0917L13.0749 12.1661L13.096 12.2145L13.1194 12.1672Z" stroke="#EB9100" stroke-width="0.0491997"/>
</g>
</g>
<defs>
<filter id="filter0_d_331_308" x="4.1306" y="7.21021" width="23.1331" height="17.3772" filterUnits="userSpaceOnUse" color-interpolation-filters="sRGB">
<feFlood flood-opacity="0" result="BackgroundImageFix"/>
<feColorMatrix in="SourceAlpha" type="matrix" values="0 0 0 0 0 0 0 0 0 0 0 0 0 0 0 0 0 0 127 0" result="hardAlpha"/>
<feOffset dy="0.339811"/>
<feGaussianBlur stdDeviation="0.105719"/>
<feComposite in2="hardAlpha" operator="out"/>
<feColorMatrix type="matrix" values="0 0 0 0 0 0 0 0 0 0 0 0 0 0 0 0 0 0 0.25 0"/>
<feBlend mode="normal" in2="BackgroundImageFix" result="effect1_dropShadow_331_308"/>
<feBlend mode="normal" in="SourceGraphic" in2="effect1_dropShadow_331_308" result="shape"/>
</filter>
<filter id="filter1_d_331_308" x="9.9343" y="9.85498" width="10.7102" height="14.123" filterUnits="userSpaceOnUse" color-interpolation-filters="sRGB">
<feFlood flood-opacity="0" result="BackgroundImageFix"/>
<feColorMatrix in="SourceAlpha" type="matrix" values="0 0 0 0 0 0 0 0 0 0 0 0 0 0 0 0 0 0 127 0" result="hardAlpha"/>
<feOffset dy="0.344398"/>
<feGaussianBlur stdDeviation="0.0983994"/>
<feComposite in2="hardAlpha" operator="out"/>
<feColorMatrix type="matrix" values="0 0 0 0 0 0 0 0 0 0 0 0 0 0 0 0 0 0 0.25 0"/>
<feBlend mode="normal" in2="BackgroundImageFix" result="effect1_dropShadow_331_308"/>
<feBlend mode="normal" in="SourceGraphic" in2="effect1_dropShadow_331_308" result="shape"/>
</filter>
<clipPath id="clip0_331_308">
<rect width="23.3715" height="17.3304" fill="white" transform="matrix(-1 0 0 1 27.3643 7.02148)"/>
</clipPath>
<clipPath id="clip1_331_308">
<rect width="11.1683" height="14.7107" fill="white" transform="translate(9.70117 9.28931)"/>
</clipPath>
</defs>
</svg>
